<mxfile host="app.diagrams.net" modified="2020-10-06T07:01:55.597Z" agent="5.0 (Macintosh; Intel Mac OS X 10_15_5) AppleWebKit/537.36 (KHTML, like Gecko) Chrome/85.0.4183.102 Safari/537.36" etag="u3E37l6K1Z0Sd5CxfetM" version="13.7.7" type="github">
  <diagram id="8qdkOpFF1TkM1FQP1Npe" name="Page-1">
    <mxGraphModel dx="2125" dy="1840" grid="1" gridSize="10" guides="1" tooltips="1" connect="1" arrows="1" fold="1" page="1" pageScale="1" pageWidth="827" pageHeight="1169" math="0" shadow="0">
      <root>
        <mxCell id="0" />
        <mxCell id="1" parent="0" />
        <mxCell id="dXcE4t8Wn8qhjNQ-LIpJ-8" value="" style="rounded=1;whiteSpace=wrap;html=1;fillColor=#E6E6E6;" parent="1" vertex="1">
          <mxGeometry x="-540" y="770" width="670" height="270" as="geometry" />
        </mxCell>
        <mxCell id="dXcE4t8Wn8qhjNQ-LIpJ-10" value="存储计算资源层" style="rounded=0;whiteSpace=wrap;html=1;fillColor=#E6E6E6;strokeColor=#E6E6E6;" parent="1" vertex="1">
          <mxGeometry x="-510" y="890" width="10" height="30" as="geometry" />
        </mxCell>
        <mxCell id="dXcE4t8Wn8qhjNQ-LIpJ-1" value="HDFS" style="rounded=0;whiteSpace=wrap;html=1;" parent="1" vertex="1">
          <mxGeometry x="-460" y="880" width="120" height="50" as="geometry" />
        </mxCell>
        <mxCell id="dXcE4t8Wn8qhjNQ-LIpJ-2" value="Text" style="text;html=1;align=center;verticalAlign=middle;resizable=0;points=[];autosize=1;" parent="1" vertex="1">
          <mxGeometry x="-83" y="126" width="40" height="20" as="geometry" />
        </mxCell>
        <mxCell id="dXcE4t8Wn8qhjNQ-LIpJ-3" value="Spark" style="rounded=0;whiteSpace=wrap;html=1;" parent="1" vertex="1">
          <mxGeometry x="-460" y="810" width="510" height="50" as="geometry" />
        </mxCell>
        <mxCell id="dXcE4t8Wn8qhjNQ-LIpJ-4" value="K8S" style="rounded=0;whiteSpace=wrap;html=1;" parent="1" vertex="1">
          <mxGeometry x="-460" y="950" width="510" height="50" as="geometry" />
        </mxCell>
        <mxCell id="dXcE4t8Wn8qhjNQ-LIpJ-5" value="Kafka" style="rounded=0;whiteSpace=wrap;html=1;" parent="1" vertex="1">
          <mxGeometry x="-320" y="880" width="120" height="50" as="geometry" />
        </mxCell>
        <mxCell id="dXcE4t8Wn8qhjNQ-LIpJ-6" value="MySQL" style="rounded=0;whiteSpace=wrap;html=1;" parent="1" vertex="1">
          <mxGeometry x="-180" y="880" width="120" height="50" as="geometry" />
        </mxCell>
        <mxCell id="dXcE4t8Wn8qhjNQ-LIpJ-7" value="Redis" style="rounded=0;whiteSpace=wrap;html=1;" parent="1" vertex="1">
          <mxGeometry x="-40" y="880" width="90" height="50" as="geometry" />
        </mxCell>
        <mxCell id="dXcE4t8Wn8qhjNQ-LIpJ-11" value="" style="rounded=1;whiteSpace=wrap;html=1;fillColor=#E6E6E6;" parent="1" vertex="1">
          <mxGeometry x="-550" y="-60" width="670" height="810" as="geometry" />
        </mxCell>
        <mxCell id="dXcE4t8Wn8qhjNQ-LIpJ-12" value="存储计算资源层" style="rounded=0;whiteSpace=wrap;html=1;fillColor=#E6E6E6;strokeColor=#E6E6E6;" parent="1" vertex="1">
          <mxGeometry x="-520" y="520" width="10" height="30" as="geometry" />
        </mxCell>
        <mxCell id="dXcE4t8Wn8qhjNQ-LIpJ-14" value="" style="rounded=0;whiteSpace=wrap;html=1;" parent="1" vertex="1">
          <mxGeometry x="-493" y="-44" width="560" height="460" as="geometry" />
        </mxCell>
        <mxCell id="dXcE4t8Wn8qhjNQ-LIpJ-23" value="&lt;span&gt;计算框架&lt;/span&gt;" style="rounded=0;whiteSpace=wrap;html=1;strokeColor=#E6E6E6;fillColor=#FFFFFF;" parent="1" vertex="1">
          <mxGeometry x="-288" y="-34" width="120" height="20" as="geometry" />
        </mxCell>
        <mxCell id="dXcE4t8Wn8qhjNQ-LIpJ-24" value="" style="rounded=0;whiteSpace=wrap;html=1;strokeColor=#E6E6E6;fillColor=#FFFFFF;" parent="1" vertex="1">
          <mxGeometry x="-485.5" y="216" width="542.5" height="180" as="geometry" />
        </mxCell>
        <mxCell id="dXcE4t8Wn8qhjNQ-LIpJ-36" value="pipeline 框架" style="rounded=0;whiteSpace=wrap;html=1;strokeColor=#E6E6E6;fillColor=#FFFFFF;" parent="1" vertex="1">
          <mxGeometry x="-284.25" y="228" width="120" height="20" as="geometry" />
        </mxCell>
        <mxCell id="dXcE4t8Wn8qhjNQ-LIpJ-45" value="" style="rounded=0;whiteSpace=wrap;html=1;strokeColor=#E6E6E6;fillColor=#FFFFFF;" parent="1" vertex="1">
          <mxGeometry x="-490" y="-4" width="135" height="210" as="geometry" />
        </mxCell>
        <mxCell id="dXcE4t8Wn8qhjNQ-LIpJ-31" value="数据加载Stage&lt;br&gt;&lt;span&gt;&lt;br&gt;数据清洗Stage&lt;br&gt;&lt;br&gt;数据类型转化&lt;/span&gt;Stage&lt;span&gt;&lt;br&gt;&lt;br&gt;&lt;/span&gt;&lt;span&gt;特征工程Stage&lt;br&gt;&lt;br&gt;特征分析Stage&lt;br&gt;&lt;/span&gt;" style="rounded=0;whiteSpace=wrap;html=1;strokeColor=#E6E6E6;fillColor=#FFFFFF;" parent="1" vertex="1">
          <mxGeometry x="-483" y="36" width="120" height="160" as="geometry" />
        </mxCell>
        <mxCell id="dXcE4t8Wn8qhjNQ-LIpJ-25" value="&lt;span&gt;数据处理Stage&lt;/span&gt;" style="rounded=0;whiteSpace=wrap;html=1;strokeColor=#E6E6E6;fillColor=#FFFFFF;" parent="1" vertex="1">
          <mxGeometry x="-483" y="6" width="120" height="20" as="geometry" />
        </mxCell>
        <mxCell id="dXcE4t8Wn8qhjNQ-LIpJ-46" value="" style="rounded=0;whiteSpace=wrap;html=1;strokeColor=#E6E6E6;fillColor=#FFFFFF;" parent="1" vertex="1">
          <mxGeometry x="-353" y="-4" width="135" height="210" as="geometry" />
        </mxCell>
        <mxCell id="dXcE4t8Wn8qhjNQ-LIpJ-32" value="社交分析Stage&lt;br&gt;&lt;span&gt;&lt;br&gt;图划分Stage&lt;br&gt;&lt;br&gt;图着色&lt;/span&gt;Stage&lt;span&gt;&lt;br&gt;&lt;br&gt;&lt;/span&gt;&lt;span&gt;图匹配Stage&lt;br&gt;&lt;br&gt;安全分析Stage&lt;br&gt;&lt;/span&gt;" style="rounded=0;whiteSpace=wrap;html=1;strokeColor=#E6E6E6;fillColor=#FFFFFF;" parent="1" vertex="1">
          <mxGeometry x="-343" y="36" width="120" height="160" as="geometry" />
        </mxCell>
        <mxCell id="dXcE4t8Wn8qhjNQ-LIpJ-26" value="&lt;span&gt;图计算Stage&lt;/span&gt;" style="rounded=0;whiteSpace=wrap;html=1;strokeColor=#E6E6E6;fillColor=#FFFFFF;" parent="1" vertex="1">
          <mxGeometry x="-343" y="6" width="120" height="20" as="geometry" />
        </mxCell>
        <mxCell id="dXcE4t8Wn8qhjNQ-LIpJ-47" value="" style="rounded=0;whiteSpace=wrap;html=1;strokeColor=#E6E6E6;fillColor=#FFFFFF;fontStyle=1" parent="1" vertex="1">
          <mxGeometry x="-210.5" y="-4" width="135" height="210" as="geometry" />
        </mxCell>
        <mxCell id="dXcE4t8Wn8qhjNQ-LIpJ-33" value="实体识别Stage&lt;br&gt;&lt;span&gt;&lt;br&gt;文本分类Stage&lt;br&gt;&lt;br&gt;&lt;/span&gt;阅读理解Stage&lt;span&gt;&lt;br&gt;&lt;br&gt;&lt;/span&gt;&lt;span&gt;关系识别Stage&lt;br&gt;&lt;br&gt;语法分析Stage&lt;br&gt;&lt;/span&gt;" style="rounded=0;whiteSpace=wrap;html=1;strokeColor=#E6E6E6;fillColor=#FFFFFF;" parent="1" vertex="1">
          <mxGeometry x="-203" y="36" width="120" height="160" as="geometry" />
        </mxCell>
        <mxCell id="dXcE4t8Wn8qhjNQ-LIpJ-27" value="&lt;span&gt;NLP 训练 Stage&lt;/span&gt;" style="rounded=0;whiteSpace=wrap;html=1;strokeColor=#E6E6E6;fillColor=#FFFFFF;" parent="1" vertex="1">
          <mxGeometry x="-203" y="6" width="120" height="20" as="geometry" />
        </mxCell>
        <mxCell id="dXcE4t8Wn8qhjNQ-LIpJ-48" value="" style="rounded=0;whiteSpace=wrap;html=1;strokeColor=#E6E6E6;fillColor=#FFFFFF;fontStyle=1" parent="1" vertex="1">
          <mxGeometry x="-63" y="-4" width="120" height="210" as="geometry" />
        </mxCell>
        <mxCell id="dXcE4t8Wn8qhjNQ-LIpJ-28" value="&lt;span&gt;时序分析 Stage&lt;/span&gt;" style="rounded=0;whiteSpace=wrap;html=1;strokeColor=#E6E6E6;fillColor=#FFFFFF;" parent="1" vertex="1">
          <mxGeometry x="-53" y="6" width="100" height="20" as="geometry" />
        </mxCell>
        <mxCell id="dXcE4t8Wn8qhjNQ-LIpJ-35" value="异常检测Stage&lt;br&gt;&lt;span&gt;&lt;br&gt;时序预测Stage&lt;br&gt;&lt;br&gt;&lt;/span&gt;&lt;span&gt;&lt;br&gt;&lt;/span&gt;" style="rounded=0;whiteSpace=wrap;html=1;strokeColor=#E6E6E6;fillColor=#FFFFFF;" parent="1" vertex="1">
          <mxGeometry x="-53" y="36" width="100" height="160" as="geometry" />
        </mxCell>
        <mxCell id="dXcE4t8Wn8qhjNQ-LIpJ-49" value="" style="rounded=0;whiteSpace=wrap;html=1;strokeColor=#E6E6E6;fillColor=#FFFFFF;fontStyle=1" parent="1" vertex="1">
          <mxGeometry x="-480.5" y="260" width="107.5" height="126" as="geometry" />
        </mxCell>
        <mxCell id="dXcE4t8Wn8qhjNQ-LIpJ-51" value="&lt;span&gt;pipeline定义&lt;br&gt;&lt;br&gt;pipeline加载&lt;br&gt;&lt;br&gt;pipeline刷新&lt;br&gt;&lt;/span&gt;" style="rounded=0;whiteSpace=wrap;html=1;strokeColor=#E6E6E6;fillColor=#FFFFFF;" parent="1" vertex="1">
          <mxGeometry x="-475.5" y="296" width="92.5" height="80" as="geometry" />
        </mxCell>
        <mxCell id="dXcE4t8Wn8qhjNQ-LIpJ-38" value="&lt;span&gt;pipeLine定义管理&lt;/span&gt;" style="rounded=0;whiteSpace=wrap;html=1;fillColor=#FFFFFF;strokeColor=#FFFFFF;" parent="1" vertex="1">
          <mxGeometry x="-477.75" y="266" width="97" height="20" as="geometry" />
        </mxCell>
        <mxCell id="dXcE4t8Wn8qhjNQ-LIpJ-52" value="" style="rounded=0;whiteSpace=wrap;html=1;strokeColor=#E6E6E6;fillColor=#FFFFFF;fontStyle=1" parent="1" vertex="1">
          <mxGeometry x="-343" y="260" width="107.5" height="126" as="geometry" />
        </mxCell>
        <mxCell id="dXcE4t8Wn8qhjNQ-LIpJ-53" value="&lt;span&gt;pipeline运行&lt;br&gt;&lt;br&gt;pipeline停止&lt;br&gt;&lt;br&gt;pipeline重试&lt;br&gt;&lt;/span&gt;" style="rounded=0;whiteSpace=wrap;html=1;strokeColor=#E6E6E6;fillColor=#FFFFFF;" parent="1" vertex="1">
          <mxGeometry x="-335.75" y="296" width="92.5" height="80" as="geometry" />
        </mxCell>
        <mxCell id="dXcE4t8Wn8qhjNQ-LIpJ-54" value="&lt;span&gt;pipeLine调度&lt;/span&gt;" style="rounded=0;whiteSpace=wrap;html=1;fillColor=#FFFFFF;strokeColor=#FFFFFF;" parent="1" vertex="1">
          <mxGeometry x="-340.25" y="266" width="97" height="20" as="geometry" />
        </mxCell>
        <mxCell id="dXcE4t8Wn8qhjNQ-LIpJ-57" value="" style="rounded=0;whiteSpace=wrap;html=1;strokeColor=#E6E6E6;fillColor=#FFFFFF;fontStyle=1" parent="1" vertex="1">
          <mxGeometry x="-343" y="260" width="107.5" height="126" as="geometry" />
        </mxCell>
        <mxCell id="dXcE4t8Wn8qhjNQ-LIpJ-58" value="&lt;span&gt;pipeline运行&lt;br&gt;&lt;br&gt;pipeline停止&lt;br&gt;&lt;br&gt;pipeline重试&lt;br&gt;&lt;/span&gt;" style="rounded=0;whiteSpace=wrap;html=1;strokeColor=#E6E6E6;fillColor=#FFFFFF;" parent="1" vertex="1">
          <mxGeometry x="-335.75" y="296" width="92.5" height="80" as="geometry" />
        </mxCell>
        <mxCell id="dXcE4t8Wn8qhjNQ-LIpJ-59" value="&lt;span&gt;pipeLine实例调度&lt;/span&gt;" style="rounded=0;whiteSpace=wrap;html=1;fillColor=#FFFFFF;strokeColor=#FFFFFF;" parent="1" vertex="1">
          <mxGeometry x="-340.25" y="266" width="97" height="20" as="geometry" />
        </mxCell>
        <mxCell id="dXcE4t8Wn8qhjNQ-LIpJ-60" value="&lt;span&gt;pipeline运行、ti停止、重试&lt;br&gt;&lt;br&gt;pipeline 事理状态管理&lt;br&gt;&lt;br&gt;&lt;/span&gt;" style="rounded=0;whiteSpace=wrap;html=1;strokeColor=#E6E6E6;fillColor=#FFFFFF;" parent="1" vertex="1">
          <mxGeometry x="-335.5" y="291" width="92.5" height="90" as="geometry" />
        </mxCell>
        <mxCell id="dXcE4t8Wn8qhjNQ-LIpJ-61" value="" style="rounded=0;whiteSpace=wrap;html=1;strokeColor=#E6E6E6;fillColor=#FFFFFF;fontStyle=1" parent="1" vertex="1">
          <mxGeometry x="-206.75" y="260" width="107.5" height="126" as="geometry" />
        </mxCell>
        <mxCell id="dXcE4t8Wn8qhjNQ-LIpJ-62" value="异常处理" style="rounded=0;whiteSpace=wrap;html=1;fillColor=#FFFFFF;strokeColor=#FFFFFF;" parent="1" vertex="1">
          <mxGeometry x="-204" y="266" width="97" height="20" as="geometry" />
        </mxCell>
        <mxCell id="dXcE4t8Wn8qhjNQ-LIpJ-63" value="&lt;span&gt;异常重试&lt;br&gt;&lt;br&gt;异常告警&lt;br&gt;&lt;br&gt;日志记录&lt;br&gt;&lt;/span&gt;" style="rounded=0;whiteSpace=wrap;html=1;strokeColor=#E6E6E6;fillColor=#FFFFFF;" parent="1" vertex="1">
          <mxGeometry x="-199.25" y="296" width="92.5" height="80" as="geometry" />
        </mxCell>
        <mxCell id="dXcE4t8Wn8qhjNQ-LIpJ-65" value="" style="rounded=0;whiteSpace=wrap;html=1;strokeColor=#E6E6E6;fillColor=#FFFFFF;fontStyle=1" parent="1" vertex="1">
          <mxGeometry x="-71.75" y="260" width="107.5" height="126" as="geometry" />
        </mxCell>
        <mxCell id="dXcE4t8Wn8qhjNQ-LIpJ-66" value="&lt;span&gt;pipeLine管理&lt;/span&gt;" style="rounded=0;whiteSpace=wrap;html=1;fillColor=#FFFFFF;strokeColor=#FFFFFF;" parent="1" vertex="1">
          <mxGeometry x="-69" y="266" width="97" height="20" as="geometry" />
        </mxCell>
        <mxCell id="dXcE4t8Wn8qhjNQ-LIpJ-67" value="&lt;span&gt;自定义stage&lt;br&gt;&lt;br&gt;内置stage管理&lt;br&gt;&lt;br&gt;内置pipeline&lt;/span&gt;管理&lt;span&gt;&lt;br&gt;&lt;br&gt;&lt;/span&gt;" style="rounded=0;whiteSpace=wrap;html=1;strokeColor=#E6E6E6;fillColor=#FFFFFF;" parent="1" vertex="1">
          <mxGeometry x="-64.25" y="291" width="92.5" height="95" as="geometry" />
        </mxCell>
        <mxCell id="0hx_jfyCyXL4g8UBnuAK-1" value="" style="rounded=0;whiteSpace=wrap;html=1;" vertex="1" parent="1">
          <mxGeometry x="-493" y="520" width="560" height="206" as="geometry" />
        </mxCell>
        <mxCell id="dXcE4t8Wn8qhjNQ-LIpJ-13" value="DataFlow" style="rounded=0;whiteSpace=wrap;html=1;" parent="1" vertex="1">
          <mxGeometry x="-470" y="570" width="260" height="50" as="geometry" />
        </mxCell>
        <mxCell id="dXcE4t8Wn8qhjNQ-LIpJ-15" value="PyTorch" style="rounded=0;whiteSpace=wrap;html=1;" parent="1" vertex="1">
          <mxGeometry x="-470" y="640" width="110" height="50" as="geometry" />
        </mxCell>
        <mxCell id="dXcE4t8Wn8qhjNQ-LIpJ-16" value="Tornado" style="rounded=0;whiteSpace=wrap;html=1;" parent="1" vertex="1">
          <mxGeometry x="-200" y="570" width="240" height="50" as="geometry" />
        </mxCell>
        <mxCell id="dXcE4t8Wn8qhjNQ-LIpJ-19" value="TensorFlow" style="rounded=0;whiteSpace=wrap;html=1;" parent="1" vertex="1">
          <mxGeometry x="-330" y="640" width="120" height="50" as="geometry" />
        </mxCell>
        <mxCell id="dXcE4t8Wn8qhjNQ-LIpJ-20" value="DGL" style="rounded=0;whiteSpace=wrap;html=1;" parent="1" vertex="1">
          <mxGeometry x="-190" y="640" width="120" height="50" as="geometry" />
        </mxCell>
        <mxCell id="dXcE4t8Wn8qhjNQ-LIpJ-21" value="GraphX" style="rounded=0;whiteSpace=wrap;html=1;" parent="1" vertex="1">
          <mxGeometry x="-60" y="640" width="100" height="50" as="geometry" />
        </mxCell>
        <mxCell id="0hx_jfyCyXL4g8UBnuAK-2" value="&lt;span&gt;habor&lt;/span&gt;" style="rounded=0;whiteSpace=wrap;html=1;strokeColor=#E6E6E6;fillColor=#FFFFFF;" vertex="1" parent="1">
          <mxGeometry x="-265" y="530" width="120" height="20" as="geometry" />
        </mxCell>
        <mxCell id="0hx_jfyCyXL4g8UBnuAK-3" value="K8SClient" style="rounded=0;whiteSpace=wrap;html=1;" vertex="1" parent="1">
          <mxGeometry x="-490" y="430" width="560" height="50" as="geometry" />
        </mxCell>
      </root>
    </mxGraphModel>
  </diagram>
</mxfile>
